<svg xmlns="http://www.w3.org/2000/svg" xmlns:xlink="http://www.w3.org/1999/xlink"><symbol id="angle-down" viewBox="0 0 24 24"><g fill="none" fill-rule="evenodd"><path d="M0 0h24v24H0z"/><path fill="currentColor" d="M12 13.5l5-5 1.5 1.5-6.5 6.5L5.5 10 7 8.5z"/></g></symbol><use xlink:href="#angle-down" width="24" height="24"/><view id="angle-down-view" viewBox="0 0 24 24"/><symbol id="angle-left" viewBox="0 0 24 24"><g fill="none" fill-rule="evenodd"><path d="M24 0v24H0V0z"/><path fill="currentColor" d="M10.5 12l5 5-1.5 1.5L7.5 12 14 5.5 15.5 7z"/></g></symbol><use xlink:href="#angle-left" y="24" width="24" height="24"/><view id="angle-left-view" viewBox="0 24 24 24"/><symbol id="angle-right--blue" viewBox="0 0 24 24"><g fill="none" fill-rule="evenodd"><path d="M0 24V0h24v24z"/><path fill="#0000bf" d="M13.5 12l-5-5L10 5.5l6.5 6.5-6.5 6.5L8.5 17z"/></g></symbol><use xlink:href="#angle-right--blue" y="48" width="24" height="24"/><view id="angle-right--blue-view" viewBox="0 48 24 24"/><symbol id="angle-right" viewBox="0 0 24 24"><g fill="none" fill-rule="evenodd"><path d="M0 24V0h24v24z"/><path fill="currentColor" d="M13.5 12l-5-5L10 5.5l6.5 6.5-6.5 6.5L8.5 17z"/></g></symbol><use xlink:href="#angle-right" y="72" width="24" height="24"/><view id="angle-right-view" viewBox="0 72 24 24"/><symbol id="angle-up" viewBox="0 0 24 24"><g fill="none" fill-rule="evenodd"><path d="M0 24h24V0H0z"/><path fill="currentColor" d="M12 11.5l5 5 1.5-1.5L12 8.5 5.5 15 7 16.5z"/></g></symbol><use xlink:href="#angle-up" y="96" width="24" height="24"/><view id="angle-up-view" viewBox="0 96 24 24"/><symbol id="arrow-down" viewBox="0 0 24 24"><g fill="none" fill-rule="evenodd"><path d="M0 0h24v24H0z"/><path fill="currentColor" d="M13 4v12.5l4-4 1.5 1.5-6.5 6.5L5.5 14 7 12.5l4 4V4z"/></g></symbol><use xlink:href="#arrow-down" y="120" width="24" height="24"/><view id="arrow-down-view" viewBox="0 120 24 24"/><symbol id="arrow-up" viewBox="0 0 24 24"><g fill="none" fill-rule="evenodd"><path d="M0 0h24v24H0z"/><path fill="currentColor" d="M12 3.5l6.5 6.5-1.5 1.5-4-4V20h-2V7.5l-4 4L5.5 10z"/></g></symbol><use xlink:href="#arrow-up" y="144" width="24" height="24"/><view id="arrow-up-view" viewBox="0 144 24 24"/><symbol id="cross" viewBox="0 0 24 24"><g fill="none" fill-rule="evenodd"><path d="M0 0h24v24H0z"/><path fill="currentColor" d="M18 7.5L13.5 12l4.5 4.5-1.5 1.5-4.5-4.5L7.5 18 6 16.5l4.5-4.5L6 7.5 7.5 6l4.5 4.5L16.5 6z"/></g></symbol><use xlink:href="#cross" y="168" width="24" height="24"/><view id="cross-view" viewBox="0 168 24 24"/><symbol id="info-circle-fill" viewBox="0 0 24 24"><g fill="none" fill-rule="evenodd"><path d="M0 0h24v24H0z"/><path fill="currentColor" d="M12 3a9 9 0 100 18 9 9 0 000-18zm1 7v6.5h2V18H9v-1.5h2v-5H9V10h4zm-1.187-4a1.312 1.312 0 110 2.625 1.312 1.312 0 010-2.625z"/></g></symbol><use xlink:href="#info-circle-fill" y="192" width="24" height="24"/><view id="info-circle-fill-view" viewBox="0 192 24 24"/><symbol id="menu-hamburger" viewBox="0 0 24 24"><g fill="none" fill-rule="evenodd"><path d="M0 0h24v24H0z"/><path d="M22 17v2H2v-2h20zm0-6v2H2v-2h20zm0-6v2H2V5h20z" fill="currentColor"/></g></symbol><use xlink:href="#menu-hamburger" y="216" width="24" height="24"/><view id="menu-hamburger-view" viewBox="0 216 24 24"/><symbol id="signin" viewBox="0 0 24 24"><g fill="none" fill-rule="evenodd"><path d="M0 0h24v24H0z"/><path d="M21 2v20H8v-5h2v3h9V4h-9v3H8V2h13zm-8.5 5l5 5-5 5-1.5-1.5 2.5-2.501L2 13v-2l11.499-.001L11 8.5 12.5 7z" fill="currentColor"/></g></symbol><use xlink:href="#signin" y="240" width="24" height="24"/><view id="signin-view" viewBox="0 240 24 24"/><symbol id="test" viewBox="0 0 100 100"><path d="M50 10c22.1 0 40 17.9 40 40S72.1 90 50 90 10 72.1 10 50s17.9-40 40-40m0-10C22.4 0 0 22.4 0 50s22.4 50 50 50 50-22.4 50-50S77.6 0 50 0z"/><path d="M63.1 72.9c-.7.6-1.8 1.3-3.4 2.1-1.6.8-3.6 1.2-5.8 1.2-3.3 0-6-.9-8-2.7-2-1.8-3-4.7-3-8.8V45.5h-6.1v-8.1H43v-7.7l10.6-5.9v13.6h8.6v8.1h-8.6v18.3c0 1.5.2 2.5.7 3.1.5.6 1.1.9 2 .9.8 0 1.4-.3 1.9-.8.5-.6.8-1.1 1.1-1.6l3.8 7.5z"/></symbol><use xlink:href="#test" y="264" width="100" height="100"/><view id="test-view" viewBox="0 264 100 100"/><symbol id="trash" viewBox="0 0 24 24"><g fill="none" fill-rule="evenodd"><path d="M0 0h24v24H0z"/><path d="M18 9H6l1.087 13h9.826L18 9zm-2.095 2l-.818 9H8.912l-.818-9h7.811zM12 2a2.97 2.97 0 012.995 2.82L15 5v1h3v2H6V6h3V5c0-1.688 1.331-3 3-3zm0 2c-.53 0-.938.365-.994.879L11 5v1h2V5c0-.577-.43-1-1-1z" fill="currentColor"/></g></symbol><use xlink:href="#trash" y="364" width="24" height="24"/><view id="trash-view" viewBox="0 364 24 24"/><symbol id="user" viewBox="0 0 24 24"><g fill="none" fill-rule="evenodd"><path d="M0 0h24v24H0z"/><path d="M16.267 13a4.733 4.733 0 014.728 4.517l.005.216V22H3v-4.267a4.733 4.733 0 014.517-4.728L7.733 13h8.534zm-8.534 2a2.733 2.733 0 00-2.728 2.567L5 17.733V20h14v-2.267c0-1.416-1.107-2.636-2.46-2.726l-.163-.005L7.733 15zM12 2a5 5 0 110 10 5 5 0 010-10zm0 2a3 3 0 100 6 3 3 0 000-6z" fill="currentColor"/></g></symbol><use xlink:href="#user" y="388" width="24" height="24"/><view id="user-view" viewBox="0 388 24 24"/></svg>