<?xml version="1.0" encoding="utf-8"?><svg viewBox="0 0 100 100" xmlns="http://www.w3.org/2000/svg" xmlns:xlink="http://www.w3.org/1999/xlink"><style>:root>svg{display:none}:root>svg:target{display:block}</style><svg viewBox="0 0 24 24" id="angle-down" xmlns="http://www.w3.org/2000/svg"><g fill="none" fill-rule="evenodd"><path d="M0 0h24v24H0z"/><path fill="currentColor" d="m12 13.5 5-5 1.5 1.5-6.5 6.5L5.5 10 7 8.5z"/></g></svg><svg viewBox="0 0 24 24" id="angle-left" xmlns="http://www.w3.org/2000/svg"><g fill="none" fill-rule="evenodd"><path d="M24 0v24H0V0z"/><path fill="currentColor" d="m10.5 12 5 5-1.5 1.5L7.5 12 14 5.5 15.5 7z"/></g></svg><svg viewBox="0 0 24 24" id="angle-right" xmlns="http://www.w3.org/2000/svg"><g fill="none" fill-rule="evenodd"><path d="M0 24V0h24v24z"/><path fill="currentColor" d="m13.5 12-5-5L10 5.5l6.5 6.5-6.5 6.5L8.5 17z"/></g></svg><svg viewBox="0 0 24 24" id="angle-right--blue" xmlns="http://www.w3.org/2000/svg"><g fill="none" fill-rule="evenodd"><path d="M0 24V0h24v24z"/><path fill="#0000bf" d="m13.5 12-5-5L10 5.5l6.5 6.5-6.5 6.5L8.5 17z"/></g></svg><svg viewBox="0 0 24 24" id="angle-up" xmlns="http://www.w3.org/2000/svg"><g fill="none" fill-rule="evenodd"><path d="M0 24h24V0H0z"/><path fill="currentColor" d="m12 11.5 5 5 1.5-1.5L12 8.5 5.5 15 7 16.5z"/></g></svg><svg viewBox="0 0 24 24" id="arrow-down" xmlns="http://www.w3.org/2000/svg"><g fill="none" fill-rule="evenodd"><path d="M0 0h24v24H0z"/><path fill="currentColor" d="M13 4v12.5l4-4 1.5 1.5-6.5 6.5L5.5 14 7 12.5l4 4V4z"/></g></svg><svg viewBox="0 0 24 24" id="arrow-up" xmlns="http://www.w3.org/2000/svg"><g fill="none" fill-rule="evenodd"><path d="M0 0h24v24H0z"/><path fill="currentColor" d="m12 3.5 6.5 6.5-1.5 1.5-4-4V20h-2V7.5l-4 4L5.5 10z"/></g></svg><svg viewBox="0 0 24 24" id="cross" xmlns="http://www.w3.org/2000/svg"><g fill="none" fill-rule="evenodd"><path d="M0 0h24v24H0z"/><path fill="currentColor" d="M18 7.5 13.5 12l4.5 4.5-1.5 1.5-4.5-4.5L7.5 18 6 16.5l4.5-4.5L6 7.5 7.5 6l4.5 4.5L16.5 6z"/></g></svg><svg viewBox="0 0 24 24" id="floor-plan" xmlns="http://www.w3.org/2000/svg"><g fill="none" fill-rule="evenodd"><path d="M0 0h24v24H0z"/><g stroke="#000" stroke-width="2"><path d="M13 12V5M9 11H3M10 20h3v-4h8V5H3v15h3"/></g></g></svg><svg viewBox="0 0 24 24" id="info-circle-fill" xmlns="http://www.w3.org/2000/svg"><g fill="none" fill-rule="evenodd"><path d="M0 0h24v24H0z"/><path fill="currentColor" d="M12 3a9 9 0 1 0 0 18 9 9 0 0 0 0-18Zm1 7v6.5h2V18H9v-1.5h2v-5H9V10h4Zm-1.187-4a1.312 1.312 0 1 1 0 2.625 1.312 1.312 0 0 1 0-2.625Z"/></g></svg><svg viewBox="0 0 24 24" id="menu-hamburger" xmlns="http://www.w3.org/2000/svg"><g fill="none" fill-rule="evenodd"><path d="M0 0h24v24H0z"/><path d="M22 17v2H2v-2h20zm0-6v2H2v-2h20zm0-6v2H2V5h20z" fill="currentColor"/></g></svg><svg viewBox="0 0 24 24" id="pen" xmlns="http://www.w3.org/2000/svg"><g fill="none" fill-rule="evenodd"><path d="M0 0h24v24H0z"/><path fill="currentColor" d="M16.75 3 4.5 15.25l.014 4.736L9.25 20 21.5 7.75 16.75 3ZM6.5 16 16.75 5.75l2 2L8.5 18l-1.993-.006L6.5 16Z"/></g></svg><svg viewBox="0 0 24 24" id="pen-line" xmlns="http://www.w3.org/2000/svg"><g fill="none" fill-rule="evenodd"><path d="M0 0h24v24H0z"/><path fill="currentColor" d="M20.5 20v2h-17v-2h17ZM14.25 2.5 19 7.25 8.25 18l-4.736-.014L3.5 13.25 14.25 2.5Zm0 2.75L5.5 14l.007 1.994L7.5 16l8.75-8.75-2-2Z"/></g></svg><svg viewBox="0 0 24 24" id="signin" xmlns="http://www.w3.org/2000/svg"><g fill="none" fill-rule="evenodd"><path d="M0 0h24v24H0z"/><path d="M21 2v20H8v-5h2v3h9V4h-9v3H8V2h13zm-8.5 5 5 5-5 5-1.5-1.5 2.5-2.501L2 13v-2l11.499-.001L11 8.5 12.5 7z" fill="currentColor"/></g></svg><svg viewBox="0 0 100 100" xml:space="preserve" id="test" xmlns="http://www.w3.org/2000/svg"><path d="M50 10c22.1 0 40 17.9 40 40S72.1 90 50 90 10 72.1 10 50s17.9-40 40-40m0-10C22.4 0 0 22.4 0 50s22.4 50 50 50 50-22.4 50-50S77.6 0 50 0z"/><path d="M63.1 72.9c-.7.6-1.8 1.3-3.4 2.1-1.6.8-3.6 1.2-5.8 1.2-3.3 0-6-.9-8-2.7-2-1.8-3-4.7-3-8.8V45.5h-6.1v-8.1H43v-7.7l10.6-5.9v13.6h8.6v8.1h-8.6v18.3c0 1.5.2 2.5.7 3.1.5.6 1.1.9 2 .9.8 0 1.4-.3 1.9-.8.5-.6.8-1.1 1.1-1.6l3.8 7.5z"/></svg><svg viewBox="0 0 24 24" id="trash" xmlns="http://www.w3.org/2000/svg"><g fill="none" fill-rule="evenodd"><path d="M0 0h24v24H0z"/><path d="M18 9H6l1.087 13h9.826L18 9zm-2.095 2-.818 9H8.912l-.818-9h7.811zM12 2a2.97 2.97 0 0 1 2.995 2.82L15 5v1h3v2H6V6h3V5c0-1.688 1.331-3 3-3zm0 2c-.53 0-.938.365-.994.879L11 5v1h2V5c0-.577-.43-1-1-1z" fill="currentColor"/></g></svg><svg viewBox="0 0 24 24" id="user" xmlns="http://www.w3.org/2000/svg"><g fill="none" fill-rule="evenodd"><path d="M0 0h24v24H0z"/><path d="M16.267 13a4.733 4.733 0 0 1 4.728 4.517l.005.216V22H3v-4.267a4.733 4.733 0 0 1 4.517-4.728L7.733 13h8.534zm-8.534 2a2.733 2.733 0 0 0-2.728 2.567L5 17.733V20h14v-2.267c0-1.416-1.107-2.636-2.46-2.726l-.163-.005L7.733 15zM12 2a5 5 0 1 1 0 10 5 5 0 0 1 0-10zm0 2a3 3 0 1 0 0 6 3 3 0 0 0 0-6z" fill="currentColor"/></g></svg></svg>