<svg xmlns="http://www.w3.org/2000/svg" xmlns:xlink="http://www.w3.org/1999/xlink"><symbol id="floor-plan" viewBox="0 0 24 24"><g fill="none" fill-rule="evenodd"><path d="M0 0h24v24H0z"/><path d="M13 12V5m-4 6H3m7 9h3v-4h8V5H3v15h3" stroke="#000" stroke-width="2"/></g></symbol><use xlink:href="#floor-plan" width="24" height="24"/><view id="floor-plan-view" viewBox="0 0 24 24"/><symbol fill="currentColor" id="testing" viewBox="0 0 24 24"><path d="M16.7 14.4V9.7L14 12.1zm-4.8-.4l-1.3-1.1-3.3 2.8h9.1l-3.2-2.8zm4.5-5.6H7.3l4.6 4.1zM7 9.7v4.7l2.7-2.3z"/><path d="M18.9 3h-14c-1.1 0-2 .9-2 2v14c0 1.1.9 2 2 2h14c1.1 0 2-.9 2-2V5c0-1.1-.9-2-2-2zm-1 13.8h-12V7.2H18v9.6z"/></symbol><use fill="currentColor" xlink:href="#testing" y="24" width="24" height="24"/><view id="testing-view" viewBox="0 24 24 24"/></svg>